<?xml version="1.0" standalone="no"?>
<!DOCTYPE svg PUBLIC "-//W3C//DTD SVG 20010904//EN"
 "http://www.w3.org/TR/2001/REC-SVG-20010904/DTD/svg10.dtd">
<svg version="1.0" xmlns="http://www.w3.org/2000/svg"
 width="1280.000000pt" height="467.000000pt" viewBox="0 0 1280.000000 467.000000"
 preserveAspectRatio="xMidYMid meet">

<g transform="translate(0.000000,467.000000) scale(0.100000,-0.100000)"
fill="#000000" stroke="none">
<path d="M11783 3380 c-134 -28 -251 -152 -336 -360 -19 -47 -43 -120 -53
-162 -17 -75 -22 -82 -132 -215 -176 -214 -202 -243 -216 -243 -10 0 -14 46
-19 203 -7 239 -19 332 -54 409 -19 43 -33 61 -60 73 -32 15 -36 15 -71 -3
-23 -11 -47 -36 -62 -63 -22 -39 -25 -56 -25 -144 0 -85 5 -115 32 -200 45
-139 101 -241 180 -323 31 -32 22 -47 -206 -302 -185 -209 -343 -370 -362
-370 -24 0 -24 21 -2 120 20 92 23 360 5 468 -17 102 -50 195 -79 227 -91 97
-220 49 -300 -113 -35 -70 -38 -83 -37 -156 1 -99 24 -166 132 -381 87 -175
122 -263 122 -308 0 -28 -11 -41 -89 -106 -49 -41 -109 -86 -133 -101 -117
-71 -241 -97 -322 -66 -71 27 -80 43 -73 136 3 44 2 80 -1 80 -4 0 -15 -14
-24 -30 -36 -63 -216 -152 -370 -184 -127 -26 -304 -18 -376 17 -25 11 -27 18
-27 70 0 52 3 60 40 97 46 48 109 80 153 80 31 0 55 -17 78 -56 19 -31 27 -9
10 25 -44 85 -106 81 -241 -15 -210 -150 -276 -184 -354 -184 -38 0 -38 0 -45
48 -8 54 -15 65 -73 110 -53 41 -58 80 -17 123 14 15 25 32 23 38 -2 6 -40
-21 -84 -61 -211 -192 -306 -238 -487 -238 -95 0 -108 8 -108 71 0 43 -3 51
-25 61 -46 21 -77 -39 -48 -95 34 -66 -14 -121 -75 -86 -23 12 -27 22 -30 65
-3 46 0 54 29 82 19 18 43 32 57 32 21 0 22 2 12 15 -7 8 -18 15 -24 15 -7 0
-51 -31 -99 -70 -122 -99 -186 -132 -269 -138 -36 -2 -81 -2 -100 2 -36 7 -86
48 -137 114 -43 55 -73 56 -153 2 -33 -22 -69 -40 -80 -40 -18 0 -19 5 -13 50
4 28 3 50 -1 50 -5 0 -24 -15 -44 -34 -39 -37 -100 -73 -173 -100 -106 -40
-307 -58 -389 -35 -33 9 -38 14 -38 39 0 25 9 35 53 63 28 18 61 37 71 43 29
15 31 34 4 34 -34 0 -116 -41 -175 -89 -70 -55 -83 -54 -83 6 0 39 11 66 76
179 85 150 146 286 161 356 13 61 -1 92 -43 96 -79 8 -162 -162 -199 -408 -30
-200 -21 -179 -100 -227 -87 -53 -222 -108 -300 -122 -182 -34 -370 8 -370 84
0 27 3 29 63 41 80 16 130 41 156 77 19 26 19 30 5 55 -23 41 -79 36 -151 -11
-30 -20 -62 -37 -70 -37 -8 0 -38 -20 -66 -44 -132 -113 -247 -166 -356 -166
-55 0 -131 29 -152 58 -17 21 -18 85 -2 129 17 47 4 50 -39 8 -82 -80 -234
-133 -407 -142 l-108 -6 7 51 c8 59 -3 85 -47 112 -30 18 -32 18 -67 0 -20
-10 -45 -27 -55 -39 -32 -35 -48 -27 -45 21 4 47 -16 65 -27 24 -9 -39 -152
-126 -283 -171 -176 -62 -383 -57 -457 11 -31 30 -32 72 -2 78 132 25 142 29
182 66 37 35 40 41 31 66 -24 66 -97 50 -210 -46 -86 -73 -151 -102 -239 -108
-59 -4 -82 0 -120 17 -42 18 -51 19 -74 7 -15 -8 -36 -23 -46 -35 -11 -12 -30
-21 -43 -21 -19 0 -23 5 -23 29 0 21 9 36 35 55 67 52 28 101 -80 101 -81 -1
-125 -18 -198 -77 -98 -79 -184 -118 -317 -144 -137 -26 -225 -14 -236 32 -7
29 -1 66 17 111 12 29 11 35 -3 49 -14 14 -19 14 -56 -5 -23 -12 -60 -21 -83
-21 l-41 0 6 43 c3 23 9 68 12 99 6 56 7 57 62 94 126 83 235 240 235 337 0
129 -137 194 -357 168 -267 -32 -535 -143 -695 -287 -77 -69 -126 -182 -105
-238 12 -31 24 -15 24 32 0 132 142 264 395 367 149 62 262 87 417 92 157 6
218 -4 261 -45 24 -23 27 -33 27 -86 0 -145 -126 -290 -344 -396 -126 -62
-208 -90 -259 -90 l-40 0 7 57 c13 112 65 296 97 342 33 47 32 66 -2 35 -45
-41 -76 -129 -125 -362 -9 -46 -24 -90 -32 -98 -9 -10 -30 -14 -61 -12 l-46 3
2 40 2 40 -24 -28 c-14 -15 -25 -32 -25 -37 0 -16 46 -40 91 -48 41 -7 44 -10
47 -40 5 -47 -35 -158 -70 -198 -28 -32 -29 -34 -9 -34 36 0 78 82 120 237 13
47 23 54 95 72 27 7 75 23 107 37 78 32 99 32 99 -3 1 -50 36 -112 67 -118 15
-4 34 -8 40 -10 7 -3 36 3 63 12 61 20 81 9 62 -32 -26 -56 -14 -96 36 -127
31 -19 50 -23 112 -21 148 2 297 56 423 151 37 29 89 59 116 68 61 19 140 15
155 -8 15 -25 -9 -46 -85 -72 -70 -24 -85 -42 -42 -51 15 -4 43 -13 61 -20 39
-18 43 -51 9 -92 -49 -59 -148 -213 -178 -277 -39 -84 -47 -136 -24 -159 55
-56 161 36 252 220 47 93 47 94 45 191 -1 92 0 98 25 124 31 32 63 35 118 12
52 -21 109 -20 180 5 80 28 91 27 111 -14 26 -56 73 -82 195 -110 59 -13 76
-13 150 0 125 21 237 63 339 126 26 16 55 29 65 29 31 0 12 -104 -40 -225 -88
-201 -122 -338 -92 -364 21 -16 33 -8 56 37 30 60 47 118 80 276 37 175 52
214 115 284 39 42 54 52 80 52 41 0 56 -15 56 -56 0 -41 -41 -91 -83 -102 -17
-4 -33 -14 -35 -20 -3 -10 22 -12 115 -7 168 10 331 44 426 90 78 38 107 40
107 8 0 -49 68 -106 153 -129 82 -22 202 19 335 113 66 47 92 50 92 9 0 -32
40 -79 85 -100 40 -19 44 -38 15 -81 -46 -70 2 -141 71 -105 30 17 22 27 -18
26 -35 -1 -38 1 -41 30 -2 25 4 37 33 63 35 30 37 31 138 31 83 0 118 5 182
26 70 22 197 80 253 115 11 7 27 9 36 6 14 -6 16 -15 10 -56 -3 -28 -3 -58 0
-68 6 -15 14 -10 50 30 49 52 71 58 103 24 70 -74 331 -58 516 33 46 22 87 40
91 40 5 0 6 -25 3 -55 -3 -31 -1 -57 4 -61 6 -3 43 26 83 64 112 107 171 117
225 39 35 -52 91 -91 149 -107 65 -17 184 18 274 81 37 27 54 24 68 -11 16
-39 64 -73 102 -73 17 0 39 10 56 26 26 25 31 26 137 25 95 -1 121 3 190 26
78 27 178 86 246 145 47 42 71 39 135 -15 47 -41 54 -51 54 -83 0 -52 -14 -61
-93 -61 -58 0 -73 4 -103 26 -42 33 -47 11 -6 -29 85 -82 229 -74 428 24 55
27 105 49 111 49 6 0 13 -14 17 -31 8 -39 57 -86 104 -99 21 -5 70 -14 110
-20 131 -18 338 29 482 111 38 21 74 39 80 39 5 0 19 -19 30 -43 29 -61 106
-105 187 -106 81 -2 230 61 328 139 22 17 86 76 142 131 l102 100 83 -8 c117
-11 291 -9 369 5 85 15 213 56 248 78 62 41 131 134 131 178 0 62 -79 113
-157 101 -67 -10 -168 -48 -306 -116 -186 -91 -204 -77 -74 59 46 48 108 114
137 147 30 33 75 83 101 110 26 28 64 71 85 97 37 46 41 48 84 44 25 -1 81
-13 125 -25 204 -56 402 -7 487 121 36 55 36 87 0 121 -54 52 -103 47 -389
-39 -51 -15 -95 -25 -99 -22 -12 13 8 46 79 128 61 71 86 92 157 130 133 71
226 144 400 316 140 138 190 232 160 303 -20 50 -106 77 -187 61z m-5583
-1439 c0 -87 -116 -343 -158 -349 -19 -3 -22 1 -22 34 0 51 47 228 76 286 25
50 46 67 82 68 19 0 22 -5 22 -39z m-2902 -448 c-3 -31 -9 -39 -42 -56 -47
-25 -130 -35 -141 -17 -10 15 22 59 65 88 22 14 48 22 77 22 l44 0 -3 -37z
m2112 -13 c0 -24 -7 -33 -40 -50 -47 -24 -120 -27 -120 -5 0 25 89 85 126 85
31 0 34 -3 34 -30z m-2812 -338 c-9 -125 -147 -338 -214 -330 -64 7 -35 104
86 291 60 92 65 97 98 97 l34 0 -4 -58z"/>
<path d="M8400 1783 c0 -39 -5 -52 -32 -80 -22 -23 -27 -33 -16 -33 20 0 68
48 80 79 6 16 5 34 -3 53 -17 42 -29 34 -29 -19z"/>
<path d="M4629 1591 c-13 -11 -20 -23 -16 -27 4 -4 20 4 35 19 30 31 16 37
-19 8z"/>
<path d="M9609 1591 c-13 -11 -21 -22 -17 -26 8 -8 58 23 58 36 0 14 -16 10
-41 -10z"/>
</g>
</svg>
